Coordinates
version=1
nRows=16
nColumns=63
inDegrees=yes

Units are S.I. units (second, meters, Newtons, ...)
If the header above contains a line with 'inDegrees', this indicates whether rotational values are in degrees (yes) or radians (no).

endheader
time	pelvis_tilt	pelvis_list	pelvis_rotation	pelvis_tx	pelvis_ty	pelvis_tz	hip_flexion_r	hip_adduction_r	hip_rotation_r	knee_angle_r	knee_angle_r_beta	ankle_angle_r	subtalar_angle_r	mtp_angle_r	hip_flexion_l	hip_adduction_l	hip_rotation_l	knee_angle_l	knee_angle_l_beta	ankle_angle_l	subtalar_angle_l	mtp_angle_l	L5_S1_Flex_Ext	L5_S1_Lat_Bending	L5_S1_axial_rotation	L4_L5_Flex_Ext	L4_L5_Lat_Bending	L4_L5_axial_rotation	L3_L4_Flex_Ext	L3_L4_Lat_Bending	L3_L4_axial_rotation	L2_L3_Flex_Ext	L2_L3_Lat_Bending	L2_L3_axial_rotation	L1_L2_Flex_Ext	L1_L2_Lat_Bending	L1_L2_axial_rotation	L1_T12_Flex_Ext	L1_T12_Lat_Bending	L1_T12_axial_rotation	Abs_r3	Abs_r2	Abs_r1	Abs_t1	Abs_t2	neck_flexion	neck_bending	neck_rotation	arm_flex_r	arm_add_r	arm_rot_r	elbow_flex_r	pro_sup_r	wrist_flex_r	wrist_dev_r	arm_flex_l	arm_add_l	arm_rot_l	elbow_flex_l	pro_sup_l	wrist_flex_l	wrist_dev_l
0.000000	4.414365	-4.467908	98.710394	0.222469	0.993692	0.444171	6.791462	4.030495	-11.332682	8.769919	0.153064	27.991954	-2.780700	0.000000	5.552208	-5.158869	8.228278	2.073261	0.036185	30.594968	3.677339	0.000000	0.151960	0.272501	-1.668580	0.282204	0.362426	-1.772866	0.249655	0.662559	-1.772866	0.173675	0.662559	-1.460007	0.141110	0.555684	-1.355721	0.086830	0.422104	-1.251435	1.085433	3.082584	-9.280141	0.000000	0.000000	26.738914	2.517837	9.699590	15.177642	-16.374739	63.140802	57.055702	84.394369	2.610381	5.805353	11.279933	-13.238298	65.099630	55.625582	16.246542	-37.984420	26.440329
0.016667	4.471983	-4.411327	98.861632	0.221388	0.994388	0.443629	7.057858	3.923718	-11.676407	9.120958	0.159191	28.658386	-2.551747	0.000000	5.361208	-5.105170	9.977497	1.755592	0.030641	30.111457	2.072642	0.000000	0.152793	0.288369	-1.721161	0.283753	0.383531	-1.828733	0.251024	0.701140	-1.828733	0.174628	0.701140	-1.506016	0.141884	0.588042	-1.398443	0.087306	0.446684	-1.290871	1.091388	3.262087	-9.572580	0.000000	0.000000	26.713864	2.534170	9.795148	15.234089	-16.488014	63.555519	56.977768	84.092741	1.500517	5.210620	10.171516	-12.996429	61.866286	57.959194	4.835937	-46.811706	26.075696
0.033333	4.467332	-4.371244	98.920637	0.220555	0.994935	0.443229	7.302639	3.776835	-11.915963	9.465682	0.165207	29.256454	-2.275790	0.000000	5.223867	-5.006730	11.182648	1.541012	0.026896	29.754880	0.920588	0.000000	0.153339	0.294485	-1.751566	0.284766	0.391665	-1.861038	0.251920	0.716011	-1.861038	0.175251	0.716011	-1.532620	0.142391	0.600514	-1.423147	0.087618	0.456157	-1.313674	1.095284	3.331275	-9.741682	0.000000	0.000000	26.709950	2.555893	9.802665	15.287913	-16.544569	63.827995	56.885141	83.964290	0.954999	4.798021	9.389612	-12.823992	59.303103	59.702445	-2.021438	-51.926380	25.961210
0.050000	4.408601	-4.344636	98.898312	0.219947	0.995353	0.442945	7.523640	3.597029	-12.060926	9.800080	0.171044	29.788681	-1.962674	0.000000	5.132136	-4.870663	11.904795	1.417557	0.024741	29.511156	0.170799	0.000000	0.153595	0.292074	-1.762280	0.285242	0.388459	-1.872423	0.252342	0.710150	-1.872423	0.175544	0.710150	-1.541995	0.142629	0.595598	-1.431853	0.087764	0.452423	-1.321710	1.097116	3.304003	-9.801274	0.000000	0.000000	26.723078	2.579949	9.733060	15.334738	-16.547489	63.966507	56.776429	83.970027	0.903916	4.552578	8.896011	-12.711435	57.336510	60.910104	-4.843098	-53.750923	26.062488
0.066667	4.303975	-4.328476	98.805562	0.219540	0.995659	0.442753	7.718696	3.391481	-12.120871	10.120141	0.176630	30.257590	-1.622249	0.000000	5.077964	-4.704085	12.205003	1.373265	0.023968	29.366204	-0.227103	0.000000	0.153562	0.282362	-1.755791	0.285180	0.375541	-1.865528	0.252287	0.686534	-1.865528	0.175506	0.686534	-1.536317	0.142597	0.575792	-1.426580	0.087745	0.437378	-1.316843	1.096876	3.194132	-9.765182	0.000000	0.000000	26.749157	2.603278	9.597252	15.370191	-16.499860	63.979333	56.650242	84.070962	1.277355	4.459316	8.652502	-12.649201	55.892935	61.636940	-4.146560	-52.707816	26.345144
0.083333	4.161640	-4.319739	98.653289	0.219310	0.995873	0.442628	7.885639	3.167371	-12.105374	10.421853	0.181896	30.665705	-1.264359	0.000000	5.053302	-4.514110	12.144338	1.396174	0.024368	29.305941	-0.323495	0.000000	0.153237	0.266572	-1.734583	0.284577	0.354541	-1.842995	0.251753	0.648143	-1.842995	0.175135	0.648143	-1.517760	0.142296	0.543594	-1.409349	0.087560	0.412920	-1.300938	1.094557	3.015517	-9.647232	0.000000	0.000000	26.784092	2.622820	9.406160	15.389895	-16.404769	63.874752	56.505188	84.228106	2.005404	4.503259	8.620873	-12.627738	54.898808	61.937724	-0.449339	-49.219539	26.774796
0.100000	3.989784	-4.315400	98.452397	0.219232	0.996011	0.442546	8.022306	2.931881	-12.024009	10.701207	0.186771	31.015548	-0.898853	0.000000	5.050100	-4.307854	11.783866	1.474319	0.025732	29.316287	-0.168755	0.000000	0.152620	0.245931	-1.701144	0.283431	0.327088	-1.807465	0.250740	0.597956	-1.807465	0.174430	0.597956	-1.488501	0.141723	0.501502	-1.382179	0.087207	0.380947	-1.275858	1.090152	2.782018	-9.461251	0.000000	0.000000	26.823792	2.635517	9.170703	15.389477	-16.265301	63.661040	56.339876	84.402470	3.018150	4.669432	8.762913	-12.637490	54.280556	61.867226	5.731049	-43.708574	27.317058
0.116667	3.796591	-4.312434	98.213788	0.219283	0.996093	0.442481	8.126529	2.692192	-11.886353	10.954190	0.191187	31.309642	-0.535577	0.000000	5.060308	-4.092430	11.184653	1.595739	0.027851	29.383160	0.186740	0.000000	0.151711	0.221663	-1.657958	0.281742	0.294811	-1.761580	0.249245	0.538950	-1.761580	0.173390	0.538950	-1.450713	0.140878	0.452014	-1.347091	0.086687	0.343355	-1.243468	1.083653	2.507491	-9.221064	0.000000	0.000000	26.864164	2.638309	8.901800	15.364562	-16.084543	63.346477	56.152915	84.555063	4.245683	4.942858	9.040411	-12.668902	53.964608	61.480216	13.877087	-36.597400	27.937546
0.133333	3.590249	-4.307815	97.948367	0.219439	0.996138	0.442410	8.196144	2.455486	-11.701981	11.176792	0.195072	31.550510	-0.184378	0.000000	5.075877	-3.874955	10.407763	1.748470	0.030517	29.492479	0.692612	0.000000	0.150507	0.194993	-1.607512	0.279506	0.259340	-1.707981	0.247267	0.474105	-1.707981	0.172014	0.474105	-1.406573	0.139760	0.397629	-1.306103	0.086000	0.302044	-1.205634	1.075054	2.205795	-8.940499	0.000000	0.000000	26.901114	2.628136	8.610371	15.310775	-15.865579	62.939340	55.942913	84.646895	5.618089	5.308561	9.415154	-12.712421	53.877392	60.831463	23.471259	-28.308498	28.601877
0.150000	3.378944	-4.298518	97.667036	0.219675	0.996163	0.442307	8.228984	2.228943	-11.480468	11.365001	0.198357	31.740677	0.144896	0.000000	5.088755	-3.662543	9.514262	1.920550	0.033520	29.630162	1.298484	0.000000	0.149008	0.167146	-1.552292	0.276722	0.222304	-1.649310	0.244805	0.406399	-1.649310	0.170301	0.406399	-1.358255	0.138369	0.340844	-1.261237	0.085143	0.258909	-1.164219	1.064347	1.890788	-8.633381	0.000000	0.000000	26.930551	2.601940	8.307334	15.223742	-15.611497	62.447906	55.708478	84.638978	7.065457	5.751565	9.848933	-12.758492	53.945338	59.975737	33.996050	-19.264348	29.275665
0.166667	3.170862	-4.281518	97.380699	0.219968	0.996187	0.442147	8.222884	2.019745	-11.231390	11.514806	0.200971	31.882664	0.442400	0.000000	5.090894	-3.462309	8.565216	2.100015	0.036652	29.782128	1.953979	0.000000	0.147213	0.139348	-1.494783	0.273389	0.185332	-1.588207	0.241856	0.338810	-1.588207	0.168249	0.338810	-1.307935	0.136702	0.284157	-1.214511	0.084117	0.215849	-1.121088	1.051526	1.576327	-8.313537	0.000000	0.000000	26.948381	2.556662	8.003607	15.099087	-15.325383	61.880454	55.448221	84.492322	8.517873	6.256895	10.303536	-12.797560	54.094875	58.967808	44.933943	-9.887432	29.924528
0.183333	2.988360	-4.281936	97.104499	0.220272	0.996219	0.441871	8.195367	1.844988	-10.982194	11.608589	0.202608	31.949187	0.728799	0.000000	5.091828	-3.286909	7.781106	2.264277	0.039519	29.854520	2.365188	0.000000	0.149703	0.114435	-1.447740	0.278014	0.152198	-1.538223	0.245948	0.278236	-1.538223	0.171096	0.278236	-1.266772	0.139015	0.233355	-1.176288	0.085540	0.177259	-1.085805	1.069316	1.294506	-8.051893	0.000000	0.000000	26.969731	2.443769	7.740402	14.926475	-15.004712	61.333744	55.154810	83.761003	9.774029	6.799984	10.600766	-12.834249	54.305286	57.910815	53.437245	-2.467393	30.611883
0.200000	2.834986	-4.239626	96.846945	0.220576	0.996353	0.441542	8.107920	1.711690	-10.743898	11.654600	0.203411	31.994580	0.954730	0.000000	5.038707	-3.152567	7.033304	2.403676	0.041952	29.951482	2.857546	0.000000	0.146804	0.093379	-1.389813	0.272629	0.124195	-1.476676	0.241183	0.227043	-1.476676	0.167782	0.227043	-1.216086	0.136322	0.190419	-1.129223	0.083884	0.144645	-1.042360	1.048603	1.056326	-7.729723	0.000000	0.000000	26.939370	2.291686	7.434932	14.682261	-14.681848	60.614733	54.842715	82.765848	10.905823	7.365691	10.949935	-12.803273	54.279857	56.880203	61.744945	4.662534	31.439604
0.216667	2.723979	-4.184790	96.641188	0.220843	0.996559	0.441105	7.981364	1.633544	-10.492550	11.630087	0.202983	32.001217	1.040876	0.000000	4.954828	-3.065016	6.546391	2.494765	0.043542	30.000635	3.157709	0.000000	0.143673	0.078315	-1.347178	0.266816	0.104159	-1.431377	0.236041	0.190415	-1.431377	0.164204	0.190415	-1.178781	0.133415	0.159699	-1.094582	0.082095	0.121310	-1.010383	1.026245	0.885912	-7.492600	0.000000	0.000000	26.882097	2.118669	7.212275	14.419015	-14.333478	59.916515	54.508684	81.713638	11.644431	7.963649	11.091452	-12.728632	53.809459	55.981588	68.899913	10.836065	32.000067
0.233333	2.658617	-4.112632	96.493714	0.221049	0.996831	0.440514	7.810515	1.613258	-10.229113	11.542110	0.201448	31.967671	0.991125	0.000000	4.829944	-3.028602	6.312363	2.531843	0.044189	30.002863	3.269763	0.000000	0.140856	0.069713	-1.316178	0.261584	0.092718	-1.398439	0.231413	0.169499	-1.398439	0.160984	0.169499	-1.151656	0.130799	0.142158	-1.069395	0.080485	0.107985	-0.987134	1.006121	0.788602	-7.320187	0.000000	0.000000	26.796658	1.943337	7.068652	14.104981	-13.965308	59.202738	54.137640	80.468440	12.076492	8.606720	11.073510	-12.602647	53.055207	55.160498	74.759767	16.067997	32.084230
0.250000	2.636890	-4.006148	96.418329	0.221175	0.997175	0.439719	7.575593	1.651001	-9.967642	11.397540	0.198925	31.890938	0.802366	0.000000	4.642747	-3.043198	6.301538	2.509939	0.043807	29.963511	3.224285	0.000000	0.136467	0.067165	-1.296078	0.253433	0.089330	-1.377083	0.224201	0.163306	-1.377083	0.155968	0.163306	-1.134068	0.126723	0.136964	-1.053064	0.077977	0.104039	-0.972059	0.974769	0.759788	-7.208398	0.000000	0.000000	26.688773	1.778022	6.997336	13.712226	-13.578371	58.455029	53.733634	79.055704	12.190991	9.264309	10.902860	-12.408001	52.065194	54.407309	79.110320	20.123321	31.685750
